<svg width="181" height="50" viewBox="0 0 181 50" fill="none" xmlns="http://www.w3.org/2000/svg">
<path d="M55.5127 39.7686C55.6793 39.7686 55.8648 39.7761 56.0693 39.7913C56.2813 39.8064 56.4934 39.8329 56.7054 39.8708C56.9174 39.9087 57.1143 39.9617 57.2961 40.0298L57.1711 40.6546C56.9212 40.6319 56.6562 40.6167 56.376 40.6091C56.1034 40.594 55.8686 40.5864 55.6717 40.5864C55.24 40.5864 54.8917 40.647 54.6266 40.7682C54.3692 40.8893 54.1836 41.1014 54.07 41.4043C53.9564 41.7072 53.8997 42.1275 53.8997 42.6652C53.8997 43.2029 53.9564 43.6269 54.07 43.9374C54.1836 44.2403 54.3692 44.4524 54.6266 44.5735C54.8917 44.6947 55.24 44.7553 55.6717 44.7553C55.7853 44.7553 55.933 44.7515 56.1147 44.7439C56.304 44.7364 56.5009 44.725 56.7054 44.7099C56.9174 44.6947 57.1181 44.672 57.3074 44.6417L57.3983 45.2892C57.1257 45.3876 56.8228 45.4596 56.4896 45.505C56.1639 45.5504 55.8383 45.5732 55.5127 45.5732C54.8766 45.5732 54.3654 45.4785 53.9792 45.2892C53.5929 45.0999 53.3128 44.7932 53.1386 44.3691C52.972 43.945 52.8887 43.377 52.8887 42.6652C52.8887 41.9533 52.972 41.3854 53.1386 40.9613C53.3128 40.5372 53.5929 40.2343 53.9792 40.0525C54.3654 39.8632 54.8766 39.7686 55.5127 39.7686Z" fill="#333333"/>
<path d="M63.4777 39.9049V45.4368H62.5235V39.9049H63.4777ZM59.6837 39.9049V45.4368H58.7408V39.9049H59.6837ZM62.6257 39.9049L62.6144 40.6887H59.6269V39.9049H62.6257Z" fill="#333333"/>
<path d="M67.626 39.7686C68.2622 39.7686 68.7695 39.8632 69.1482 40.0525C69.5268 40.2419 69.7995 40.5523 69.9661 40.984C70.1402 41.4081 70.2273 41.9723 70.2273 42.6765C70.2273 43.3808 70.1402 43.9488 69.9661 44.3804C69.7995 44.8045 69.5268 45.1112 69.1482 45.3005C68.7695 45.4899 68.2622 45.5845 67.626 45.5845C66.9899 45.5845 66.4788 45.4899 66.0925 45.3005C65.7139 45.1112 65.4375 44.8045 65.2633 44.3804C65.0967 43.9488 65.0134 43.3808 65.0134 42.6765C65.0134 41.9723 65.0967 41.4081 65.2633 40.984C65.4375 40.5523 65.7139 40.2419 66.0925 40.0525C66.4788 39.8632 66.9899 39.7686 67.626 39.7686ZM67.626 40.5864C67.2247 40.5864 66.9066 40.6508 66.6719 40.7795C66.4371 40.9007 66.2705 41.1127 66.1721 41.4157C66.0736 41.7186 66.0244 42.1389 66.0244 42.6765C66.0244 43.2142 66.0736 43.6345 66.1721 43.9374C66.2705 44.2403 66.4371 44.4562 66.6719 44.5849C66.9066 44.7061 67.2247 44.7667 67.626 44.7667C68.0274 44.7667 68.3417 44.7061 68.5689 44.5849C68.8036 44.4562 68.9702 44.2403 69.0687 43.9374C69.1671 43.6345 69.2163 43.2142 69.2163 42.6765C69.2163 42.1389 69.1671 41.7186 69.0687 41.4157C68.9702 41.1127 68.8036 40.9007 68.5689 40.7795C68.3417 40.6508 68.0274 40.5864 67.626 40.5864Z" fill="#333333"/>
<path d="M74.9334 39.7686C75.6149 39.7686 76.1034 40.0185 76.3987 40.5183C76.6941 41.0105 76.8417 41.7375 76.8417 42.6993C76.8417 43.4111 76.766 43.9791 76.6145 44.4032C76.4631 44.8197 76.2321 45.1188 75.9216 45.3005C75.6111 45.4823 75.2211 45.5732 74.7516 45.5732C74.3881 45.5732 74.0284 45.5239 73.6725 45.4255C73.3166 45.327 72.9758 45.1756 72.6501 44.9711L72.7069 44.3918C73.0629 44.4902 73.3734 44.5735 73.6384 44.6417C73.911 44.7023 74.1988 44.7326 74.5017 44.7326C74.8273 44.7326 75.0848 44.6758 75.2741 44.5622C75.471 44.4486 75.6149 44.2441 75.7058 43.9488C75.7967 43.6534 75.8421 43.2369 75.8421 42.6993C75.8421 42.1767 75.8005 41.764 75.7172 41.4611C75.6414 41.1582 75.5127 40.9423 75.3309 40.8136C75.1568 40.6773 74.922 40.6091 74.6267 40.6091C74.3237 40.6091 74.0246 40.6811 73.7293 40.825C73.4339 40.9689 73.0894 41.1885 72.6956 41.4838L72.5933 40.8363C72.7978 40.6167 73.0288 40.4274 73.2863 40.2684C73.5437 40.1093 73.8126 39.9882 74.0928 39.9049C74.3805 39.814 74.6607 39.7686 74.9334 39.7686ZM72.5593 39.9049L72.6729 41.0522L72.7297 41.1998V44.7439L72.6842 44.8802C72.7069 45.0923 72.7221 45.2968 72.7297 45.4936C72.7372 45.6905 72.7372 45.8988 72.7297 46.1184V47.7201H71.7755V39.9049H72.5593Z" fill="#333333"/>
<path d="M80.7608 39.9049V45.4368H79.7952V39.9049H80.7608ZM82.76 39.9049V40.7H77.7846V39.9049H82.76Z" fill="#333333"/>
<path d="M88.8172 39.9049V45.4368H87.9425V41.7678C87.9425 41.6466 87.9463 41.5292 87.9539 41.4157C87.9615 41.2945 87.969 41.1657 87.9766 41.0294H87.9539C87.9084 41.1355 87.8479 41.2491 87.7721 41.3702C87.704 41.4838 87.6358 41.586 87.5677 41.6769L84.7506 45.4368H83.9554V39.9049H84.8301V43.5739C84.8301 43.6951 84.8263 43.8163 84.8187 43.9374C84.8187 44.051 84.8111 44.176 84.796 44.3123H84.8187C84.8793 44.1987 84.9437 44.0851 85.0118 43.9715C85.08 43.8579 85.1481 43.7595 85.2163 43.6762L88.0334 39.9049H88.8172Z" fill="#333333"/>
<path d="M92.8715 39.8481C93.447 39.8481 93.9014 39.8897 94.2346 39.973C94.5754 40.0563 94.8215 40.204 94.973 40.416C95.1244 40.6281 95.2001 40.931 95.2001 41.3248C95.2001 41.7186 95.1055 42.0177 94.9162 42.2222C94.7344 42.4191 94.4315 42.5364 94.0074 42.5743V42.6084C94.5224 42.6462 94.8821 42.7901 95.0865 43.04C95.291 43.2824 95.3932 43.6269 95.3932 44.0737C95.3932 44.4524 95.3175 44.7477 95.1661 44.9598C95.0222 45.1642 94.7874 45.3081 94.4618 45.3914C94.1437 45.4747 93.7159 45.5164 93.1782 45.5164C92.792 45.5164 92.455 45.5126 92.1672 45.505C91.8794 45.505 91.6144 45.4974 91.3721 45.4823C91.1373 45.4747 90.8874 45.4634 90.6223 45.4482L90.7586 44.7326C90.9101 44.7401 91.1903 44.7477 91.5992 44.7553C92.0082 44.7553 92.4891 44.7553 93.0419 44.7553C93.3827 44.7553 93.6553 44.7326 93.8597 44.6871C94.0642 44.6341 94.2081 44.5433 94.2914 44.4145C94.3823 44.2858 94.4277 44.104 94.4277 43.8693C94.4277 43.5133 94.3217 43.271 94.1096 43.1423C93.8976 43.006 93.5227 42.9378 92.9851 42.9378H90.7473V42.2449H92.9851C93.3031 42.2449 93.5568 42.2222 93.7461 42.1767C93.9355 42.1313 94.0718 42.048 94.1551 41.9268C94.2384 41.7981 94.28 41.6239 94.28 41.4043C94.28 41.1923 94.2346 41.0294 94.1437 40.9158C94.0528 40.8023 93.9014 40.7227 93.6894 40.6773C93.4773 40.6319 93.1933 40.6091 92.8374 40.6091C92.5118 40.6016 92.2164 40.5978 91.9514 40.5978C91.6939 40.5978 91.4667 40.6016 91.2698 40.6091C91.0729 40.6091 90.9025 40.6167 90.7586 40.6319L90.6223 39.9162C90.8571 39.8935 91.0805 39.8784 91.2925 39.8708C91.5046 39.8632 91.7356 39.8594 91.9855 39.8594C92.2354 39.8519 92.5307 39.8481 92.8715 39.8481ZM91.5311 39.9162V45.4482H90.6223V39.9162H91.5311Z" fill="#333333"/>
<path d="M97.8663 39.9049V45.4368H96.9121V39.9049H97.8663ZM100.877 42.1313V42.8696H97.7981V42.1313H100.877ZM101.728 39.9049V45.4368H100.774V39.9049H101.728Z" fill="#333333"/>
<path d="M106.148 39.7686C106.557 39.7686 106.901 39.8254 107.181 39.9389C107.461 40.045 107.674 40.2267 107.817 40.4842C107.961 40.7417 108.033 41.0938 108.033 41.5406V45.4368H107.272L107.124 44.2328L107.068 44.1078V41.5406C107.06 41.1998 106.981 40.9575 106.829 40.8136C106.678 40.6622 106.382 40.5864 105.943 40.5864C105.648 40.5864 105.28 40.6016 104.841 40.6319C104.41 40.6622 103.982 40.6962 103.558 40.7341L103.467 40.0185C103.724 39.973 104.008 39.9314 104.319 39.8935C104.629 39.8556 104.943 39.8254 105.262 39.8026C105.58 39.7799 105.875 39.7686 106.148 39.7686ZM107.579 42.0291L107.567 42.7561L104.932 42.7674C104.667 42.775 104.478 42.8469 104.364 42.9832C104.258 43.112 104.205 43.2937 104.205 43.5285V43.8806C104.205 44.1684 104.273 44.3804 104.41 44.5167C104.553 44.6455 104.773 44.7099 105.068 44.7099C105.28 44.7099 105.519 44.672 105.784 44.5963C106.057 44.513 106.329 44.388 106.602 44.2214C106.875 44.0548 107.124 43.8428 107.352 43.5853V44.3009C107.276 44.4069 107.159 44.5319 107 44.6758C106.848 44.8121 106.663 44.9484 106.443 45.0847C106.231 45.2134 105.992 45.3233 105.727 45.4141C105.462 45.4974 105.178 45.5391 104.875 45.5391C104.55 45.5391 104.262 45.4823 104.012 45.3687C103.762 45.2475 103.569 45.0734 103.433 44.8462C103.296 44.6114 103.228 44.3274 103.228 43.9942V43.3922C103.228 42.9605 103.361 42.6273 103.626 42.3926C103.898 42.1502 104.277 42.0291 104.762 42.0291H107.579Z" fill="#333333"/>
<path d="M111.722 39.8481C112.139 39.8481 112.483 39.8519 112.756 39.8594C113.029 39.8594 113.271 39.867 113.483 39.8821C113.703 39.8897 113.93 39.9049 114.165 39.9276L114.028 40.6659C113.945 40.6508 113.695 40.6394 113.278 40.6319C112.87 40.6243 112.358 40.6205 111.745 40.6205C111.283 40.6205 110.976 40.7 110.825 40.859C110.681 41.0105 110.609 41.2642 110.609 41.6201C110.609 41.9912 110.685 42.26 110.836 42.4266C110.995 42.5857 111.31 42.6652 111.779 42.6652H114.04L114.062 43.3808C113.979 43.3808 113.839 43.3846 113.642 43.3922C113.445 43.3922 113.188 43.3922 112.87 43.3922C112.551 43.3922 112.173 43.3922 111.734 43.3922C111.469 43.3922 111.253 43.4414 111.086 43.5398C110.927 43.6383 110.821 43.7784 110.768 43.9601L110.348 45.4368H109.348L109.848 43.7784C109.901 43.6194 109.984 43.4906 110.098 43.3922C110.219 43.2937 110.352 43.2218 110.495 43.1763C110.647 43.1233 110.791 43.0893 110.927 43.0741V43.0287C110.624 42.9832 110.378 42.8962 110.189 42.7674C110.007 42.6387 109.874 42.4683 109.791 42.2562C109.708 42.0366 109.666 41.7792 109.666 41.4838C109.666 41.2263 109.697 40.9954 109.757 40.7909C109.825 40.5864 109.939 40.416 110.098 40.2797C110.257 40.1358 110.469 40.0298 110.734 39.9617C110.999 39.8859 111.328 39.8481 111.722 39.8481ZM114.165 39.9276V45.4368H113.222V39.9276H114.165Z" fill="#333333"/>
<path d="M119.999 39.8367C120.665 39.8367 121.195 39.9276 121.589 40.1093C121.983 40.2911 122.267 40.5902 122.441 41.0067C122.615 41.4232 122.702 41.9874 122.702 42.6993C122.702 43.396 122.615 43.9564 122.441 44.3804C122.267 44.7969 121.983 45.0961 121.589 45.2778C121.195 45.4596 120.665 45.5504 119.999 45.5504C119.56 45.5504 119.196 45.5315 118.908 45.4936C118.621 45.4634 118.337 45.4103 118.056 45.3346L118.159 44.6531C118.431 44.6758 118.704 44.6947 118.977 44.7099C119.249 44.725 119.59 44.7326 119.999 44.7326C120.438 44.7326 120.783 44.6758 121.033 44.5622C121.283 44.441 121.46 44.2328 121.567 43.9374C121.673 43.6421 121.726 43.2294 121.726 42.6993C121.726 42.1692 121.673 41.7564 121.567 41.4611C121.46 41.1582 121.283 40.9461 121.033 40.825C120.783 40.7038 120.438 40.6432 119.999 40.6432C119.62 40.6432 119.302 40.6508 119.045 40.6659C118.787 40.6735 118.511 40.6849 118.216 40.7L118.113 40.0298C118.401 39.9465 118.677 39.8935 118.943 39.8708C119.215 39.8481 119.567 39.8367 119.999 39.8367ZM122.418 42.2562V42.9832H118.908V42.2562H122.418Z" fill="#333333"/>
<path d="M128.88 39.9049C128.759 40.2305 128.642 40.5296 128.528 40.8023C128.422 41.0673 128.312 41.3021 128.199 41.5065C128.093 41.711 127.972 41.8852 127.835 42.0291C127.707 42.1729 127.555 42.2903 127.381 42.3812C127.207 42.4645 127.002 42.5175 126.767 42.5402V42.5743C127.017 42.597 127.233 42.65 127.415 42.7333C127.597 42.8166 127.756 42.934 127.892 43.0855C128.036 43.2294 128.165 43.4111 128.278 43.6307C128.399 43.8503 128.521 44.1116 128.642 44.4145C128.763 44.7099 128.895 45.0506 129.039 45.4368H128.028C127.892 45.0809 127.767 44.7667 127.654 44.494C127.54 44.2138 127.426 43.9753 127.313 43.7784C127.207 43.5815 127.089 43.4225 126.961 43.3013C126.832 43.1726 126.68 43.0817 126.506 43.0287C126.34 42.9681 126.143 42.9378 125.916 42.9378V42.1881C126.188 42.1881 126.419 42.1389 126.608 42.0404C126.798 41.9344 126.961 41.7829 127.097 41.586C127.241 41.3891 127.373 41.1506 127.494 40.8704C127.616 40.5902 127.744 40.2684 127.881 39.9049H128.88ZM125.2 39.9049V41.552C125.2 41.7186 125.189 41.8852 125.166 42.0518C125.143 42.2184 125.109 42.3812 125.064 42.5402C125.109 42.6993 125.143 42.8583 125.166 43.0173C125.189 43.1763 125.2 43.3278 125.2 43.4717V45.4368H124.234V39.9049H125.2ZM126.279 42.1881V42.9378H124.916V42.1881H126.279Z" fill="#333333"/>
<path d="M135.186 39.9049V45.4368H134.312V41.7678C134.312 41.6466 134.315 41.5292 134.323 41.4157C134.331 41.2945 134.338 41.1657 134.346 41.0294H134.323C134.277 41.1355 134.217 41.2491 134.141 41.3702C134.073 41.4838 134.005 41.586 133.937 41.6769L131.12 45.4368H130.324V39.9049H131.199V43.5739C131.199 43.6951 131.195 43.8163 131.188 43.9374C131.188 44.051 131.18 44.176 131.165 44.3123H131.188C131.248 44.1987 131.313 44.0851 131.381 43.9715C131.449 43.8579 131.517 43.7595 131.585 43.6762L134.402 39.9049H135.186Z" fill="#333333"/>
<path d="M141.728 39.9049V45.4368H140.774V39.9049H141.728ZM137.934 39.9049V45.4368H136.991V39.9049H137.934ZM140.876 39.9049L140.865 40.6887H137.877V39.9049H140.876Z" fill="#333333"/>
<path d="M148.387 39.9049V45.4368H147.512V41.7678C147.512 41.6466 147.516 41.5292 147.524 41.4157C147.531 41.2945 147.539 41.1657 147.546 41.0294H147.524C147.478 41.1355 147.418 41.2491 147.342 41.3702C147.274 41.4838 147.206 41.586 147.137 41.6769L144.32 45.4368H143.525V39.9049H144.4V43.5739C144.4 43.6951 144.396 43.8163 144.389 43.9374C144.389 44.051 144.381 44.176 144.366 44.3123H144.389C144.449 44.1987 144.513 44.0851 144.582 43.9715C144.65 43.8579 144.718 43.7595 144.786 43.6762L147.603 39.9049H148.387Z" fill="#333333"/>
<path d="M153.361 39.7686C154.043 39.7686 154.531 40.0185 154.827 40.5183C155.122 41.0105 155.27 41.7375 155.27 42.6993C155.27 43.4111 155.194 43.9791 155.043 44.4032C154.891 44.8197 154.66 45.1188 154.35 45.3005C154.039 45.4823 153.649 45.5732 153.18 45.5732C152.816 45.5732 152.456 45.5239 152.101 45.4255C151.745 45.327 151.404 45.1756 151.078 44.9711L151.135 44.3918C151.491 44.4902 151.801 44.5735 152.066 44.6417C152.339 44.7023 152.627 44.7326 152.93 44.7326C153.255 44.7326 153.513 44.6758 153.702 44.5622C153.899 44.4486 154.043 44.2441 154.134 43.9488C154.225 43.6534 154.27 43.2369 154.27 42.6993C154.27 42.1767 154.228 41.764 154.145 41.4611C154.069 41.1582 153.941 40.9423 153.759 40.8136C153.585 40.6773 153.35 40.6091 153.055 40.6091C152.752 40.6091 152.453 40.6811 152.157 40.825C151.862 40.9689 151.517 41.1885 151.124 41.4838L151.021 40.8363C151.226 40.6167 151.457 40.4274 151.714 40.2684C151.972 40.1093 152.241 39.9882 152.521 39.9049C152.809 39.814 153.089 39.7686 153.361 39.7686ZM150.987 39.9049L151.101 41.0522L151.158 41.1998V44.7439L151.112 44.8802C151.135 45.0923 151.15 45.2968 151.158 45.4936C151.165 45.6905 151.165 45.8988 151.158 46.1184V47.7201H150.204V39.9049H150.987Z" fill="#333333"/>
<path d="M159.166 39.7686C159.802 39.7686 160.31 39.8632 160.688 40.0525C161.067 40.2419 161.34 40.5523 161.506 40.984C161.68 41.4081 161.767 41.9723 161.767 42.6765C161.767 43.3808 161.68 43.9488 161.506 44.3804C161.34 44.8045 161.067 45.1112 160.688 45.3005C160.31 45.4899 159.802 45.5845 159.166 45.5845C158.53 45.5845 158.019 45.4899 157.633 45.3005C157.254 45.1112 156.978 44.8045 156.803 44.3804C156.637 43.9488 156.553 43.3808 156.553 42.6765C156.553 41.9723 156.637 41.4081 156.803 40.984C156.978 40.5523 157.254 40.2419 157.633 40.0525C158.019 39.8632 158.53 39.7686 159.166 39.7686ZM159.166 40.5864C158.765 40.5864 158.447 40.6508 158.212 40.7795C157.977 40.9007 157.811 41.1127 157.712 41.4157C157.614 41.7186 157.564 42.1389 157.564 42.6765C157.564 43.2142 157.614 43.6345 157.712 43.9374C157.811 44.2403 157.977 44.4562 158.212 44.5849C158.447 44.7061 158.765 44.7667 159.166 44.7667C159.567 44.7667 159.882 44.7061 160.109 44.5849C160.344 44.4562 160.51 44.2403 160.609 43.9374C160.707 43.6345 160.756 43.2142 160.756 42.6765C160.756 42.1389 160.707 41.7186 160.609 41.4157C160.51 41.1127 160.344 40.9007 160.109 40.7795C159.882 40.6508 159.567 40.5864 159.166 40.5864Z" fill="#333333"/>
<path d="M165.553 39.8481C166.129 39.8481 166.583 39.8897 166.916 39.973C167.257 40.0563 167.503 40.204 167.655 40.416C167.806 40.6281 167.882 40.931 167.882 41.3248C167.882 41.7186 167.787 42.0177 167.598 42.2222C167.416 42.4191 167.113 42.5364 166.689 42.5743V42.6084C167.204 42.6462 167.564 42.7901 167.768 43.04C167.973 43.2824 168.075 43.6269 168.075 44.0737C168.075 44.4524 167.999 44.7477 167.848 44.9598C167.704 45.1642 167.469 45.3081 167.144 45.3914C166.826 45.4747 166.398 45.5164 165.86 45.5164C165.474 45.5164 165.137 45.5126 164.849 45.505C164.561 45.505 164.296 45.4974 164.054 45.4823C163.819 45.4747 163.569 45.4634 163.304 45.4482L163.44 44.7326C163.592 44.7401 163.872 44.7477 164.281 44.7553C164.69 44.7553 165.171 44.7553 165.724 44.7553C166.064 44.7553 166.337 44.7326 166.542 44.6871C166.746 44.6341 166.89 44.5433 166.973 44.4145C167.064 44.2858 167.11 44.104 167.11 43.8693C167.11 43.5133 167.004 43.271 166.791 43.1423C166.579 43.006 166.205 42.9378 165.667 42.9378H163.429V42.2449H165.667C165.985 42.2449 166.239 42.2222 166.428 42.1767C166.617 42.1313 166.754 42.048 166.837 41.9268C166.92 41.7981 166.962 41.6239 166.962 41.4043C166.962 41.1923 166.916 41.0294 166.826 40.9158C166.735 40.8023 166.583 40.7227 166.371 40.6773C166.159 40.6319 165.875 40.6091 165.519 40.6091C165.194 40.6016 164.898 40.5978 164.633 40.5978C164.376 40.5978 164.149 40.6016 163.952 40.6091C163.755 40.6091 163.584 40.6167 163.44 40.6319L163.304 39.9162C163.539 39.8935 163.762 39.8784 163.974 39.8708C164.186 39.8632 164.417 39.8594 164.667 39.8594C164.917 39.8519 165.213 39.8481 165.553 39.8481ZM164.213 39.9162V45.4482H163.304V39.9162H164.213Z" fill="#333333"/>
<path d="M174.24 39.9049C174.119 40.2305 174.001 40.5296 173.888 40.8023C173.782 41.0673 173.672 41.3021 173.558 41.5065C173.452 41.711 173.331 41.8852 173.195 42.0291C173.066 42.1729 172.915 42.2903 172.74 42.3812C172.566 42.4645 172.362 42.5175 172.127 42.5402V42.5743C172.377 42.597 172.593 42.65 172.775 42.7333C172.956 42.8166 173.115 42.934 173.252 43.0855C173.396 43.2294 173.524 43.4111 173.638 43.6307C173.759 43.8503 173.88 44.1116 174.001 44.4145C174.123 44.7099 174.255 45.0506 174.399 45.4368H173.388C173.252 45.0809 173.127 44.7667 173.013 44.494C172.899 44.2138 172.786 43.9753 172.672 43.7784C172.566 43.5815 172.449 43.4225 172.32 43.3013C172.191 43.1726 172.04 43.0817 171.866 43.0287C171.699 42.9681 171.502 42.9378 171.275 42.9378V42.1881C171.548 42.1881 171.779 42.1389 171.968 42.0404C172.157 41.9344 172.32 41.7829 172.456 41.586C172.6 41.3891 172.733 41.1506 172.854 40.8704C172.975 40.5902 173.104 40.2684 173.24 39.9049H174.24ZM170.559 39.9049V41.552C170.559 41.7186 170.548 41.8852 170.525 42.0518C170.503 42.2184 170.469 42.3812 170.423 42.5402C170.469 42.6993 170.503 42.8583 170.525 43.0173C170.548 43.1763 170.559 43.3278 170.559 43.4717V45.4368H169.594V39.9049H170.559ZM171.639 42.1881V42.9378H170.275V42.1881H171.639Z" fill="#333333"/>
<path d="M178.308 39.7686C178.717 39.7686 179.062 39.8254 179.342 39.9389C179.622 40.045 179.834 40.2267 179.978 40.4842C180.122 40.7417 180.194 41.0938 180.194 41.5406V45.4368H179.433L179.285 44.2328L179.228 44.1078V41.5406C179.221 41.1998 179.141 40.9575 178.99 40.8136C178.838 40.6622 178.543 40.5864 178.104 40.5864C177.808 40.5864 177.441 40.6016 177.002 40.6319C176.57 40.6622 176.142 40.6962 175.718 40.7341L175.627 40.0185C175.885 39.973 176.169 39.9314 176.479 39.8935C176.79 39.8556 177.104 39.8254 177.422 39.8026C177.74 39.7799 178.035 39.7686 178.308 39.7686ZM179.739 42.0291L179.728 42.7561L177.093 42.7674C176.828 42.775 176.638 42.8469 176.525 42.9832C176.419 43.112 176.366 43.2937 176.366 43.5285V43.8806C176.366 44.1684 176.434 44.3804 176.57 44.5167C176.714 44.6455 176.934 44.7099 177.229 44.7099C177.441 44.7099 177.679 44.672 177.945 44.5963C178.217 44.513 178.49 44.388 178.762 44.2214C179.035 44.0548 179.285 43.8428 179.512 43.5853V44.3009C179.436 44.4069 179.319 44.5319 179.16 44.6758C179.009 44.8121 178.823 44.9484 178.603 45.0847C178.391 45.2134 178.153 45.3233 177.888 45.4141C177.623 45.4974 177.339 45.5391 177.036 45.5391C176.71 45.5391 176.422 45.4823 176.172 45.3687C175.923 45.2475 175.729 45.0734 175.593 44.8462C175.457 44.6114 175.389 44.3274 175.389 43.9942V43.3922C175.389 42.9605 175.521 42.6273 175.786 42.3926C176.059 42.1502 176.438 42.0291 176.922 42.0291H179.739Z" fill="#333333"/>
<path d="M65.8745 10.2646C66.1501 10.2646 66.288 10.4025 66.288 10.6781V32.5289C66.288 32.8045 66.1501 32.9424 65.8745 32.9424H62.9483C62.6515 32.9424 62.503 32.8045 62.503 32.5289V14.0495H56.8416V32.5289C56.8416 32.8045 56.6931 32.9424 56.3963 32.9424H53.5019C53.2051 32.9424 53.0566 32.8045 53.0566 32.5289V10.6781C53.0566 10.4025 53.2051 10.2646 53.5019 10.2646H65.8745Z" fill="#333333"/>
<path d="M70.6163 10.2328H77.7409C78.7799 10.2328 79.7553 10.4343 80.667 10.8371C81.6 11.2188 82.4058 11.7595 83.0843 12.4592C83.784 13.1378 84.3247 13.9435 84.7064 14.8765C85.1093 15.7883 85.3107 16.7637 85.3107 17.8027C85.3107 18.8417 85.1093 19.8276 84.7064 20.7606C84.3247 21.6724 83.784 22.4676 83.0843 23.1461C82.4058 23.8246 81.6 24.3653 80.667 24.7682C79.7553 25.1711 78.7799 25.3725 77.7409 25.3725H73.956V32.4971C73.956 32.6031 73.9135 32.7091 73.8287 32.8151C73.7439 32.8999 73.6485 32.9424 73.5425 32.9424H70.6163C70.4891 32.9424 70.3831 32.8999 70.2983 32.8151C70.2134 32.7091 70.171 32.6031 70.171 32.4971V10.6463C70.171 10.3706 70.3195 10.2328 70.6163 10.2328ZM77.7409 14.0177H73.956V21.5876H77.7409C78.271 21.5876 78.7587 21.4922 79.204 21.3013C79.6704 21.0893 80.0733 20.8136 80.4126 20.4744C80.7519 20.1351 81.0169 19.7322 81.2077 19.2657C81.4198 18.7993 81.5258 18.3116 81.5258 17.8027C81.5258 17.2726 81.4198 16.7849 81.2077 16.3396C81.0169 15.8731 80.7519 15.4702 80.4126 15.131C80.0733 14.7917 79.6704 14.5266 79.204 14.3358C78.7587 14.1238 78.271 14.0177 77.7409 14.0177Z" fill="#333333"/>
<path d="M100.506 32.9424H88.5472C88.2504 32.9424 88.1019 32.7939 88.1019 32.4971V29.6027C88.1019 29.3059 88.2504 29.1574 88.5472 29.1574H100.506C100.803 29.1574 100.952 29.3059 100.952 29.6027V32.4971C100.952 32.7939 100.803 32.9424 100.506 32.9424ZM94.5268 10.0738C95.6506 10.0738 96.679 10.2752 97.612 10.6781C98.5661 11.081 99.3825 11.6323 100.061 12.332C100.74 13.0318 101.27 13.8587 101.651 14.8129C102.033 15.7459 102.224 16.7425 102.224 17.8027C102.224 18.8629 102.033 19.8701 101.651 20.8242C101.27 21.7572 100.74 22.5736 100.061 23.2733C99.3825 23.973 98.5661 24.5243 97.612 24.9272C96.679 25.3301 95.6506 25.5315 94.5268 25.5315C93.403 25.5315 92.364 25.3301 91.4098 24.9272C90.4768 24.5243 89.671 23.973 88.9925 23.2733C88.314 22.5736 87.7839 21.7572 87.4022 20.8242C87.0205 19.8701 86.8297 18.8629 86.8297 17.8027C86.8297 16.7425 87.0205 15.7459 87.4022 14.8129C87.7839 13.8587 88.314 13.0318 88.9925 12.332C89.671 11.6323 90.4768 11.081 91.4098 10.6781C92.364 10.2752 93.403 10.0738 94.5268 10.0738ZM94.5268 22.0329C95.1629 22.0329 95.7248 21.9162 96.2125 21.683C96.7214 21.4498 97.1455 21.1423 97.4847 20.7606C97.824 20.3578 98.0785 19.9019 98.2481 19.393C98.4389 18.8841 98.5343 18.354 98.5343 17.8027C98.5343 17.2514 98.4389 16.7213 98.2481 16.2124C98.0572 15.7035 97.7816 15.2582 97.4211 14.8765C97.0819 14.4736 96.6578 14.1556 96.1489 13.9223C95.6612 13.6891 95.1205 13.5725 94.5268 13.5725C93.9331 13.5725 93.3818 13.6891 92.8729 13.9223C92.3852 14.1556 91.9611 14.4736 91.6006 14.8765C91.2614 15.2582 90.9963 15.7035 90.8055 16.2124C90.6146 16.7213 90.5192 17.2514 90.5192 17.8027C90.5192 18.354 90.6146 18.8841 90.8055 19.393C90.9963 19.9019 91.2614 20.3471 91.6006 20.7288C91.9611 21.1105 92.3852 21.4286 92.8729 21.683C93.3818 21.9162 93.9331 22.0329 94.5268 22.0329Z" fill="#333333"/>
<path d="M108.547 10.2646C108.674 10.2646 108.801 10.2964 108.929 10.36C109.077 10.4025 109.183 10.4767 109.247 10.5827L112.777 15.2582L116.308 10.5827C116.371 10.4767 116.467 10.4025 116.594 10.36C116.742 10.2964 116.88 10.2646 117.007 10.2646H119.902C120.199 10.2646 120.347 10.4025 120.347 10.6781V32.5289C120.347 32.8045 120.199 32.9424 119.902 32.9424H117.007C116.711 32.9424 116.562 32.8045 116.562 32.5289V16.5304L113.032 21.2059C112.968 21.3119 112.883 21.3649 112.777 21.3649C112.671 21.3649 112.586 21.3119 112.523 21.2059L108.992 16.5304V32.5289C108.992 32.8045 108.844 32.9424 108.547 32.9424H105.653C105.356 32.9424 105.207 32.8045 105.207 32.5289V10.6781C105.207 10.4025 105.356 10.2646 105.653 10.2646H108.547Z" fill="#333333"/>
<path d="M124.662 10.2328H135.126C135.423 10.2328 135.571 10.3706 135.571 10.6463V13.5725C135.571 13.8693 135.423 14.0177 135.126 14.0177H128.001V17.8027H133.249C133.525 17.8027 133.663 17.9405 133.663 18.2161V21.1423C133.663 21.2483 133.62 21.3543 133.536 21.4604C133.451 21.5452 133.355 21.5876 133.249 21.5876H128.001V29.1574H135.126C135.423 29.1574 135.571 29.2953 135.571 29.5709V32.4971C135.571 32.6031 135.529 32.7091 135.444 32.8151C135.359 32.8999 135.253 32.9424 135.126 32.9424H124.662C124.535 32.9424 124.429 32.8999 124.344 32.8151C124.259 32.7091 124.216 32.6031 124.216 32.4971V10.6463C124.216 10.3706 124.365 10.2328 124.662 10.2328Z" fill="#333333"/>
<path d="M137.58 10.2328H148.077C148.373 10.2328 148.522 10.3706 148.522 10.6463V13.5725C148.522 13.8693 148.373 14.0177 148.077 14.0177H144.737V32.4971C144.737 32.6031 144.694 32.7091 144.61 32.8151C144.525 32.8999 144.419 32.9424 144.292 32.9424H141.365C141.259 32.9424 141.164 32.8999 141.079 32.8151C140.994 32.7091 140.952 32.6031 140.952 32.4971V14.0177H137.58C137.305 14.0177 137.167 13.8693 137.167 13.5725V10.6463C137.167 10.3706 137.305 10.2328 137.58 10.2328Z" fill="#333333"/>
<path d="M151.436 10.2328H161.9C162.197 10.2328 162.346 10.3706 162.346 10.6463V13.5725C162.346 13.8693 162.197 14.0177 161.9 14.0177H154.776V17.8027H160.024C160.299 17.8027 160.437 17.9405 160.437 18.2161V21.1423C160.437 21.2483 160.395 21.3543 160.31 21.4604C160.225 21.5452 160.13 21.5876 160.024 21.5876H154.776V29.1574H161.9C162.197 29.1574 162.346 29.2953 162.346 29.5709V32.4971C162.346 32.6031 162.303 32.7091 162.218 32.8151C162.133 32.8999 162.027 32.9424 161.9 32.9424H151.436C151.309 32.9424 151.203 32.8999 151.118 32.8151C151.033 32.7091 150.991 32.6031 150.991 32.4971V10.6463C150.991 10.3706 151.139 10.2328 151.436 10.2328Z" fill="#333333"/>
<path d="M167.758 3.42632C167.694 3.36271 167.673 3.2991 167.694 3.23549C167.716 3.19308 167.769 3.17188 167.853 3.17188H169.889C170.122 3.17188 170.313 3.24609 170.462 3.39452L171.988 4.63495L173.515 3.39452C173.663 3.24609 173.854 3.17188 174.087 3.17188H176.123C176.208 3.17188 176.261 3.19308 176.282 3.23549C176.303 3.2991 176.282 3.36271 176.218 3.42632L172.274 8.10182C172.168 8.25024 172.073 8.32446 171.988 8.32446C171.903 8.32446 171.808 8.25024 171.702 8.10182L167.758 3.42632ZM178.159 10.2646C178.455 10.2646 178.604 10.4025 178.604 10.6781V32.5289C178.604 32.8045 178.455 32.9424 178.159 32.9424H175.232C174.957 32.9424 174.819 32.8045 174.819 32.5289V27.0582L169.444 32.6561C169.21 32.8469 168.967 32.9424 168.712 32.9424H165.786C165.489 32.9424 165.341 32.8045 165.341 32.5289V10.6781C165.341 10.4025 165.489 10.2646 165.786 10.2646H168.712C168.988 10.2646 169.126 10.4025 169.126 10.6781V27.5035L174.819 21.5876V10.6781C174.819 10.4025 174.957 10.2646 175.232 10.2646H178.159Z" fill="#333333"/>
<path d="M5.22338 15.2469C-1.68813 21.2894 5.7682 34.0329 10.3603 39.6493L38.2939 41.1019C47.4003 21.9285 24.8371 -3.63596 23.2026 0.431108C21.5682 4.49818 13.8628 7.69373 5.22338 15.2469Z" fill="url(#paint0_radial_1479_20)"/>
<path d="M27.054 31.0354C29.4718 35.703 35.5597 38.039 38.1171 38.039C44.3942 39.6185 44.6266 49.9999 27.4227 49.9999C10.2188 49.9999 3.44132 39.1653 1.24804 33.6609C-1.07678 27.8264 0.0455759 20.2391 2.97166 25.7843C5.17633 29.9623 9.24883 34.2421 12.1749 35.1197C18.7807 36.2866 21.0093 34.9445 18.2195 31.9105C16.3921 29.9232 16.3596 27.2232 18.2195 26.9534C20.0794 26.6835 24.2641 27.5346 27.054 31.0354Z" fill="url(#paint1_radial_1479_20)"/>
<defs>
<radialGradient id="paint0_radial_1479_20" cx="0" cy="0" r="1" gradientUnits="userSpaceOnUse" gradientTransform="translate(23.2026 33.5487) rotate(-86.2713) scale(32.3145 30.9428)">
<stop offset="0.273958" stop-color="#FFEA7F" stop-opacity="0.91"/>
<stop offset="0.565625" stop-color="#FF9F2F" stop-opacity="0.864343"/>
<stop offset="1" stop-color="#FF0000" stop-opacity="0.83"/>
</radialGradient>
<radialGradient id="paint1_radial_1479_20" cx="0" cy="0" r="1" gradientUnits="userSpaceOnUse" gradientTransform="translate(20.3119 33.3693) rotate(101.844) scale(11.3269 20.1455)">
<stop stop-color="#4FB2F8"/>
<stop offset="1" stop-color="#325AA6"/>
</radialGradient>
</defs>
</svg>
